<svg xmlns="http://www.w3.org/2000/svg" width="800" height="300.0" viewBox="0 0 800 300.0">
  <text x="60.0" y="18.0" font-family="sans-serif" font-weight="600" font-size="15.0" fill="#1F3958">Berapa tamu</text>
  <text x="730.0" y="18.0" font-family="sans-serif" font-size="12.0" fill="#57606a" text-anchor="end">Views 149 · Commits 12 · 16 days</text>
  <line x1="60" y1="30.0" x2="730" y2="30.0" stroke="#cfd6dc" stroke-width="1.00" stroke-dasharray="4.0 3.0"/><text x="50.0" y="34.0" font-family="sans-serif" font-size="11.0" fill="#666" text-anchor="end">Max 86</text>
<line x1="60" y1="250.0" x2="730" y2="250.0" stroke="#cfd6dc" stroke-width="1.00" stroke-dasharray="4.0 3.0"/><text x="50.0" y="254.0" font-family="sans-serif" font-size="11.0" fill="#666" text-anchor="end">Median 0</text>
<line x1="60" y1="247.4" x2="730" y2="247.4" stroke="#cfd6dc" stroke-width="1.00" stroke-dasharray="4.0 3.0"/><text x="50.0" y="251.4" font-family="sans-serif" font-size="11.0" fill="#666" text-anchor="end">P75 1</text>
  

<rect x="145.3" y="30.0" width="8.0" height="220.0" fill="#216e39" fill-opacity="0.55"><title>2026-08-01: 6 commits</title></rect>
<rect x="190.0" y="30.0" width="8.0" height="220.0" fill="#216e39" fill-opacity="0.55"><title>2026-08-02: 6 commits</title></rect>












  <path d="M 60.0 247.4 C 67.4 247.4, 89.8 250.0, 104.7 247.4 C 119.6 222.3, 134.4 132.8, 149.3 96.5 C 164.2 60.3, 179.1 4.8, 194.0 30.0 C 208.9 55.2, 223.8 210.8, 238.7 247.4 C 253.6 250.0, 268.4 249.6, 283.3 250.0 C 298.2 250.0, 313.1 250.0, 328.0 250.0 C 342.9 250.0, 357.8 250.0, 372.7 250.0 C 387.6 250.0, 402.4 250.0, 417.3 250.0 C 432.2 250.0, 447.1 250.0, 462.0 250.0 C 476.9 250.0, 491.8 250.0, 506.7 250.0 C 521.6 250.0, 536.4 250.0, 551.3 250.0 C 566.2 250.0, 581.1 250.0, 596.0 250.0 C 610.9 250.0, 625.8 250.0, 640.7 250.0 C 655.6 250.0, 670.4 250.0, 685.3 250.0 C 700.2 250.0, 722.6 250.0, 730.0 250.0 L 730.0 250.0 L 60.0 250.0 Z" fill="#1F3958" fill-opacity="0.08" stroke="none"/>
  <path d="M 60.0 247.4 C 67.4 247.4, 89.8 250.0, 104.7 247.4 C 119.6 222.3, 134.4 132.8, 149.3 96.5 C 164.2 60.3, 179.1 4.8, 194.0 30.0 C 208.9 55.2, 223.8 210.8, 238.7 247.4 C 253.6 250.0, 268.4 249.6, 283.3 250.0 C 298.2 250.0, 313.1 250.0, 328.0 250.0 C 342.9 250.0, 357.8 250.0, 372.7 250.0 C 387.6 250.0, 402.4 250.0, 417.3 250.0 C 432.2 250.0, 447.1 250.0, 462.0 250.0 C 476.9 250.0, 491.8 250.0, 506.7 250.0 C 521.6 250.0, 536.4 250.0, 551.3 250.0 C 566.2 250.0, 581.1 250.0, 596.0 250.0 C 610.9 250.0, 625.8 250.0, 640.7 250.0 C 655.6 250.0, 670.4 250.0, 685.3 250.0 C 700.2 250.0, 722.6 250.0, 730.0 250.0" fill="none" stroke="#1F3958" stroke-width="2.50" stroke-linecap="round" stroke-linejoin="round"/>
  <circle cx="60.0" cy="247.4" r="2.5" fill="#1F3958"><title>2026-07-27: 1 views</title></circle>
<circle cx="104.7" cy="247.4" r="2.5" fill="#1F3958"><title>2026-07-31: 1 views</title></circle>
<circle cx="149.3" cy="96.5" r="2.5" fill="#1F3958"><title>2026-08-01: 60 views</title></circle>
<circle cx="194.0" cy="30.0" r="2.5" fill="#1F3958"><title>2026-08-02: 86 views</title></circle>
<circle cx="238.7" cy="247.4" r="2.5" fill="#1F3958"><title>2026-08-03: 1 views</title></circle>
<circle cx="283.3" cy="250.0" r="2.5" fill="#1F3958"><title>2026-08-04: 0 views</title></circle>
<circle cx="328.0" cy="250.0" r="2.5" fill="#1F3958"><title>2026-08-05: 0 views</title></circle>
<circle cx="372.7" cy="250.0" r="2.5" fill="#1F3958"><title>2026-08-06: 0 views</title></circle>
<circle cx="417.3" cy="250.0" r="2.5" fill="#1F3958"><title>2026-08-07: 0 views</title></circle>
<circle cx="462.0" cy="250.0" r="2.5" fill="#1F3958"><title>2026-08-08: 0 views</title></circle>
<circle cx="506.7" cy="250.0" r="2.5" fill="#1F3958"><title>2026-08-09: 0 views</title></circle>
<circle cx="551.3" cy="250.0" r="2.5" fill="#1F3958"><title>2026-08-10: 0 views</title></circle>
<circle cx="596.0" cy="250.0" r="2.5" fill="#1F3958"><title>2026-08-11: 0 views</title></circle>
<circle cx="640.7" cy="250.0" r="2.5" fill="#1F3958"><title>2026-08-12: 0 views</title></circle>
<circle cx="685.3" cy="250.0" r="2.5" fill="#1F3958"><title>2026-08-13: 0 views</title></circle>
<circle cx="730.0" cy="250.0" r="2.5" fill="#1F3958"><title>2026-08-14: 0 views</title></circle>
  <text x="60.0" y="270.0" font-family="sans-serif" font-size="11.0" fill="#666" text-anchor="middle">07-27</text>

<text x="149.3" y="270.0" font-family="sans-serif" font-size="11.0" fill="#666" text-anchor="middle">08-01</text>

<text x="238.7" y="270.0" font-family="sans-serif" font-size="11.0" fill="#666" text-anchor="middle">08-03</text>

<text x="328.0" y="270.0" font-family="sans-serif" font-size="11.0" fill="#666" text-anchor="middle">08-05</text>

<text x="417.3" y="270.0" font-family="sans-serif" font-size="11.0" fill="#666" text-anchor="middle">08-07</text>

<text x="506.7" y="270.0" font-family="sans-serif" font-size="11.0" fill="#666" text-anchor="middle">08-09</text>

<text x="596.0" y="270.0" font-family="sans-serif" font-size="11.0" fill="#666" text-anchor="middle">08-11</text>

<text x="685.3" y="270.0" font-family="sans-serif" font-size="11.0" fill="#666" text-anchor="middle">08-13</text>
<text x="730.0" y="270.0" font-family="sans-serif" font-size="11.0" fill="#666" text-anchor="middle">08-14</text>
  <text x="736.0" y="34.0" font-family="sans-serif" font-size="11.0" fill="#216e39" text-anchor="start">Max 6</text>
  <text x="744.0" y="140.0" font-family="sans-serif" font-size="11.0" fill="#216e39" text-anchor="middle" transform="rotate(-90 744.0 140.0)">Berapa commit</text>
</svg>